<svg height="166" viewBox="0 0 250 166" width="250" xmlns="http://www.w3.org/2000/svg" xmlns:xlink="http://www.w3.org/1999/xlink"><linearGradient id="a" x1="50%" x2="50%" y1="0%" y2="100%"><stop offset="0" stop-color="#0079bf"/><stop offset="1" stop-color="#0079bf"/></linearGradient><g fill="none" fill-rule="nonzero"><g transform="translate(0 34)"><path d="m230.681382 105.136756c-.278311.599808-.555822 1.191619-.832534 1.775432-.431861.90691-.858125 1.796225-1.27879 2.667946-.187141.386277-.374281.765355-.556622 1.144434-2.06334 4.215451-3.989924 7.943858-5.6262 11.010077-3.024222 5.658951-8.893487 9.21859-15.309501 9.285029l-36.384357.395873h-.383877l-3.119002.033589-2.667946.028791-8.181382.088772h-.331094l-4.165067.045585h-.12716l-25.671785.278311-22.915067.239923-2.665547.028791-16.5547024.179942h-.0191939l-10.7365643.115164h-.1151631l-33.9491363.367082-10.1559501.110365c-.8647629.009874-1.7293156-.033394-2.5887716-.129559-.2927063-.033589-.5854127-.071977-.8757198-.117562-4.7365674-.731156-9.0796242-3.063147-12.3056622-6.607486-4.36900189-4.805662-7.54798461-10.412668-9.68330131-16.497121-.30870122-.878119-.59660909-1.767434-.86372361-2.667946-7.39203455-24.9880037 1.61948177-57.2264874 17.83829172-78.8003838.6797825-.9021113 1.3707614-1.7818298 2.0729367-2.6391554l.0167946-.0191939c4.9880039-6.1228407 10.5806142-11.2380038 16.5379079-14.8752399 10.5566219-6.456334 22.2528791-8.27495204 33.7571977-2.8550864 9.7336852 4.5873321 18.8219769 6.7442418 27.631958 7.3296545.890115.0575816 1.78023.1007678 2.665547.1271593 20.208733.6357966 39.148272-6.6458733 61.389155-11.34596927.885317-.18714012 1.773033-.371881 2.667947-.54702495 15.866122-3.15738964 33.46689-4.82245682 54.397792-1.32197697 2.174564.35524531 4.320358.86843978 6.420346 1.53550864.922904.29750479 1.81222.61740243 2.667946.95969289 9.990403 4.06429943 15.439059 11.57389636 17.754319 20.98368526.219129.8733205.408669 1.7618362.568618 2.665547 4.105086 22.634357-7.917467 54.7408829-18.322937 77.027351z" fill="#f2f2f2"/><path d="m119.246641 106.912188c-.096717.897398-.246532 1.788275-.448656 2.667946h22.480806v-2.667946zm-18.773992 15.069578 2.665547-.021593v-6.590691c-.914108-.040787-1.804223-.081574-2.665547-.12476zm-55.8829177-15.069578v2.667946h47.6247601v-2.667946zm203.8579657-81.4587331h-17.754319v-20.99088292c-.855726-.34708893-1.745041-.66698657-2.667946-.9596929v21.95057582h-60.830134v-22.17370442c-.894914.17514395-1.78263.35988484-2.667947.54702495v21.62667947h-61.389155v-10.2807102c-.885317-.0263915-1.775432-.0695777-2.665547-.1271593v10.4078695h-61.3891557v-14.8752399c-5.9572937 3.6372361-11.549904 8.7523992-16.5379079 14.8752399h-.0167946v.0191939c-.7037748.8637236-1.3947537 1.7434421-2.0729367 2.6391554h2.0729367v78.8003838h-19.91362765c.26551503.900512.5534229 1.789827.86372361 2.667946h19.04750484v22.461613c.9583533.293106 1.9365713.516814 2.9270633.669385.2903071.045586.5830134.083974.8757198.117563.859456.096165 1.7240087.139432 2.5887716.129558l10.1559501-.110364v-23.272553h61.3987526v22.603167l2.665547-.028791v-22.569578h61.389155v21.919386l2.667947-.028791v-21.890595h60.818138v1.144434c.182341-.379079.369481-.758157.556622-1.144434.420665-.871721.846929-1.761036 1.27879-2.667946.276712-.582214.554223-1.174024.832534-1.775432v-77.0153548h18.334933c-.161549-.9101088-.351088-1.7994242-.568618-2.6679463zm-209.3642037 81.4587331v-78.8003838h61.3891557v78.8003838zm64.0595007 0v-78.8003838h61.384357v78.8003838zm124.87524 0h-60.822936v-78.8003838h60.818138z" fill="#000" opacity=".1"/><path d="m207.075336 128.035029v3.119002l-36.449136.335892-.388676.007198-13.853167.127159-.331094.004799-4.210653.035988h-.12476l-25.666986.237524-42.1329177.391075h-.0359885l-10.712572.100768-.1151632.002399-47.6007677.43666v-3.598848l11.1924184-6.71785 22.4568138-.18714.4798465-.0024.1583493-.002399.4798465-.007198 10.7821497-.088771.4822457-.002399.1535508-.0024.4798465-.002399 3.4572936-.028791.0911709-.002399 8.5292706-.071977h.0695777l66.5547021-.56142 1.629079-.011996h.163148l1.242802-.011997 9.03311-.074376.479846-.007197.443858-.004799h.230326l2.809501-.021593.556622-.007198.746161-.004798 2.339252-.021593 3.711612-.03119.479847-.004799.834932-.004798h.15595l17.924665-.153551z" fill="#65617d"/><path d="m207.075336 128.035029v3.119002l-36.449136.335892-.388676.007198-13.853167.127159-.331094.004799-4.210653.035988h-.12476l-25.666986.237524-42.1329177.391075h-.0359885l-10.712572.100768-.1151632.002399-47.6007677.43666v-3.598848l11.1924184-6.71785 22.4568138-.18714.4798465-.0024.1583493-.002399.4798465-.007198 10.7821497-.088771.4822457-.002399.1535508-.0024.4798465-.002399 3.4572936-.028791.0911709-.002399 8.5292706-.071977h.0695777l66.5547021-.56142 1.629079-.011996h.163148l1.242802-.011997 9.03311-.074376.479846-.007197.443858-.004799h.230326l2.809501-.021593.556622-.007198.746161-.004798 2.339252-.021593 3.711612-.03119.479847-.004799.834932-.004798h.15595l17.924665-.153551z" fill="#000" opacity=".2"/><path d="m71.041267 116.041267v5.87572c.0002641.568047-.3266222 1.085461-.8397315 1.329174-.1871859.090761-.3918192.139873-.5998081.143954l-8.3733205.177543c-.2236233.005364-.4454197-.04146-.6477927-.136756-.5224295-.239455-.8571415-.76168-.8565268-1.336372v-6.053263z" fill="#3f3d56"/><path d="m71.041267 116.041267v5.87572c.0002641.568047-.3266222 1.085461-.8397315 1.329174-.1871859.090761-.3918192.139873-.5998081.143954l-8.3733205.177543c-.2236233.005364-.4454197-.04146-.6477927-.136756-.5224295-.239455-.8571415-.76168-.8565268-1.336372v-6.053263z" fill="#000" opacity=".1"/><path d="m71.5211134 116.041267v5.87572c.0002642.568047-.3266221 1.085461-.8397314 1.329174-.187186.090761-.3918193.139873-.5998081.143954l-8.3733205.177543c-.2236234.005364-.4454198-.04146-.6477927-.136756-.5224295-.239455-.8571415-.76168-.8565268-1.336372v-6.053263z" fill="#3f3d56"/><path d="m163.368522 116.038868h11.317179v7.557582h-11.317179z" fill="#3f3d56"/><path d="m163.368522 116.038868h11.317179v7.557582h-11.317179z" fill="#000" opacity=".1"/><path d="m162.888676 116.038868h11.317179v7.557582h-11.317179z" fill="#3f3d56"/><path d="m71.518714 116.038868v1.192418l-11.3171785.302303v-1.494721z" fill="#000" opacity=".1"/><path d="m91.4947217 74.9424184v40.3550866c-.0060372.511627-.4124004.928545-.9237044.947697l-45.981286 1.223608h-.0119962c-.5206953-.006469-.9412277-.427001-.9476967-.947697v-41.5786946c.006469-.5206953.4270014-.9412277.9476967-.9476967h45.9692899c.5206953.006469.9412277.4270014.9476967.9476967z" fill="#65617d"/><path d="m44.5897313 73.9947217v43.4740883h-.0119962c-.5206953-.006469-.9412277-.427001-.9476967-.947697v-41.5786946c.006469-.5206953.4270014-.9412277.9476967-.9476967z" fill="#000" opacity=".1"/><path d="m46.6866603 76.5714971h42.5863723v35.5686179l-42.5863723.959693z" fill="#387ed1"/><path d="m174.205854 116.038868v1.537907l-11.317178-.302303v-1.235604z" fill="#000" opacity=".1"/><path d="m189.143474 74.9424184v41.5786946c-.006567.525333-.434319.947697-.959693.947697l-45.990883-1.223608c-.511304-.019152-.917667-.43607-.923704-.947697v-40.3550866c.006469-.5206953.427001-.9412277.947697-.9476967h45.969289c.52444.0012701.95074.4232968.957294.9476967z" fill="#65617d"/><path d="m189.143474 74.9424184v41.5786946c-.006567.525333-.434319.947697-.959693.947697v-43.4740883c.525374 0 .953126.4223637.959693.9476967z" fill="#000" opacity=".1"/><path d="m186.082054 76.5714971h-42.586373v35.5686179l42.586373.959693z" fill="#387ed1"/><path d="m140.079175 74.9424184v40.3550866c-.006038.511627-.412401.928545-.923705.947697l-45.9812857 1.223608c-.5253741 0-.9531258-.422364-.9596929-.947697v-41.5786946c.006469-.5206953.4270013-.9412277.9476967-.9476967h45.9692899c.520695.006469.941228.4270014.947697.9476967z" fill="#65617d"/><path d="m95.2711132 76.5714971h42.5863728v35.5686179l-42.5863728.959693z" fill="#387ed1"/><path d="m207.075336 128.035029v3.119002l-36.449136.335892-.388676.007198-13.853167.127159-.331094.004799-4.210653.035988h-.12476l-25.666986.237524-42.1329177.391075h-.0359885l-10.712572.100768-.1151632.002399-47.6007677.43666v-3.598848l48.5868522-.319098h.1151631l9.834453-.067178h.0455854l67.9174664-.448657h.069578l.040787-.002399h.112764l1.149232-.007198h.350288l17.871881-.119961 1.055662-.004799.235125-.002399z" fill="#000" opacity=".1"/><circle cx="116.90499" cy="71.533109" fill="#fbbebe" r="12.315259"/><path d="m129.222649 90.4894434s-23.872361 2.8790787-21.59309 0c.825335-1.0412668 1.053262-4.1266795 1.007677-7.6415547-.014395-1.0676584-.052783-2.1737044-.107965-3.274952-.263916-5.278311-.899712-10.4366603-.899712-10.4366603s20.87332-9.8368522 18.474088-2.0393474c-.959693 3.1501919-.645394 7.5743762.083973 11.7274472.213532 1.2116123.460653 2.3992322.71977 3.5268714.632375 2.7504626 1.40514 5.4667492 2.315259 8.1381958z" fill="#fbbebe"/><path d="m121.432342 89.5129559c2.761516-.5110365 5.68618-1.4395394 8.284549-.3694818.683781.2807102 1.31238.6909789 2.012955.9261036.700576.2351248 1.468331.2927064 2.197697.4582534 2.56238.5806142 4.640115 2.53119 5.974088 4.7984645 1.333974 2.2672745 2.024952 4.8320534 2.701536 7.3704414l1.65547 6.197217c1.43954 5.386276 2.879079 10.818138 3.212572 16.386756-20.041597 1.147152-40.128967 1.261667-60.1823414.34309 1.3051823-2.480806 2.6391554-5.112764 2.5287907-7.917466-.1103646-2.804703-1.7250479-5.571017-1.1420345-8.334933.371881-1.761036 1.5762956-3.212572 2.3128599-4.851247 2.0993282-4.6833018.465451-10.9860849 4.1554702-14.551344 1.6602687-1.6026872 4.0786949-2.2096929 6.3891551-2.1329175 2.946258.0983685 5.962093 1.0172745 8.87716 1.4659309 3.733205.5662188 7.260076.9021113 11.022073.2111325z" fill="#ff6584"/><path d="m152.838292 116.185221-.023993.34309v.023992l-.040787.551824-.319097 4.440979-.386277 5.350287-.110364 1.506718-.239924 3.224568v.040787l-25.671785.239924-42.1281187.455854v.201535h-.0335893v-.201535-.067179l.1079655-3.445297.2063339-6.732246.1775432-5.707773.0167946-.568618c.0212137-.693612.3267965-1.347962.8450251-1.809467s1.2034725-.689529 1.8948982-.630553c1.1324376.09597 2.603167.213532 4.3618042.338292l.7197697.052783c10.1559496.705374 28.9251436 1.617083 47.8646836.479847.398272-.021593.798944-.045586 1.199616-.074377 2.93666-.18474 5.870921-.422264 8.776391-.719769.743528-.077903 1.483378.177499 2.020506.697495.537129.519996.816372 1.251181.762604 1.996843z" fill="#000" opacity=".1"/><path d="m83.9107486 132.564779v-.201535l42.1353164-.458254 25.671785-.239923h.071977v-.040787l.239923-3.224568.103167-1.439539.393475-5.424664.309501-4.294626v-.105566c.014305-.197891.005448-.396775-.026392-.592611.001342-.007941.001342-.016051 0-.023992-.065909-.404912-.230731-.7873-.479846-1.113244-.537084-.68872-1.39154-1.051546-2.260077-.959693-2.905471.297505-5.839732.535029-8.776392.71977-.400672.028791-.801343.052783-1.199616.074376-18.939539 1.12524-37.708733.213532-47.8646832-.479846l-.7197697-.052783c-1.7586373-.12476-3.2293666-.239924-4.3618042-.338292-1.2903086-.10888-2.4543837.774532-2.6967371 2.046545-.0242249.129892-.0386609.26142-.0431862.393474l-.1631478 5.316699-.2231286 6.734645-.1055662 3.445297v.067179.201535z" fill="#3f3d56"/><path d="m152.910269 117.867083-.295106 3.678023-.439059 5.482245-.110365 1.372361-.239923 3.073417-.014396.15355v.040787l-.035988.355087.026391-.355087h-.069577l-25.671785.239924-42.1425147.455854v-.067179l.1175623-3.445297.2399233-6.732246.1535508-4.474568c.0153409-.517182.2917171-.991357.7341651-1.259597.2716821-.166508.5893425-.242141.9069098-.215931.5038388.040787 1.1228407.088772 1.8450096.141555 1.1732245.086372 2.6199616.18714 4.3042226.292706 3.1190019.196737 7.0321497.40787 11.5163152.580614 12.476007.479847 29.318618.640595 45.316698-.760556.71977-.06238 1.463532-.131958 2.190499-.201536.287752-.028696.57767.026288.834933.15835.072871.036297.141983.079693.206334.129558.20886.151337.374325.354859.479847.590211.024477.046824.044556.095819.05998.146353.072074.198779.101502.410502.086373.621402z" fill="#000" opacity=".1"/><path d="m71.5211134 121.151631v.765356c.0002642.568047-.3266221 1.085461-.8397314 1.329174l-9.6209213.184741c-.5224295-.239455-.8571415-.76168-.8565268-1.336372v-.71977z" fill="#000" opacity=".1"/><path d="m71.6386756 123.697217-12.5359885.239923v-2.080134l12.5359885-.239923z" fill="#3f3d56"/><path d="m71.6386756 123.697217-12.5359885.239923v-2.080134l12.5359885-.239923z" fill="#000" opacity=".1"/><path d="m72.1185221 123.697217-12.5359885.239923v-2.080134l12.5359885-.239923z" fill="#3f3d56"/><path d="m162.960652 121.631478v.765355c-.000264.568047.326623 1.085461.839732 1.329175l9.620921.184741c.52243-.239455.857142-.761681.856527-1.336373v-.719769z" fill="#000" opacity=".1"/><path d="m162.840691 124.177063 12.535988.239924v-2.080135l-12.535988-.239923z" fill="#000" opacity=".1"/><path d="m162.360845 124.177063 12.535988.239924v-2.080135l-12.535988-.239923z" fill="#3f3d56"/><path d="m109.114683 75.3071017c.019194 1.6794626-.758157 3.2629559-1.417946 4.8152591-2.402245 5.6545682-3.442664 11.7943537-3.037428 17.9246642.175144 2.639155.619002 5.278311.175144 7.893474s-2.022553 5.223129-4.558541 5.974088c4.205854 2.507198 9.899232 2.243282 13.857965-.638195 2.108925-1.535509 3.680422-3.678023 5.21833-5.784549-.182659 3.784078-1.278298 7.46776-3.193378 10.736564 7.000508-.61983 13.409899-4.178956 17.636756-9.793666 1.03407-1.393954 1.933782-2.924664 2.332054-4.613724.741363-3.1190016-.292706-6.3603644-1.082054-9.4769671-.659622-2.6053613-1.154048-5.2497798-1.480326-7.9174664-.103167-.8541267-.18714-1.7322457.023992-2.5671785.239924-.9764875.880519-1.8018234 1.353167-2.6919386 1.34357-2.5287908 1.374761-5.5902111.686181-8.3685221-.68858-2.7783109-2.036948-5.3406909-3.373321-7.871881-1.070057-2.0297504-2.231286-4.153071-4.189059-5.3454894-1.223609-.743762-2.639156-1.053263-4.049904-1.353167l-6.086852-1.3027831c-1.331574-.2855086-2.701536-.5710173-4.047505-.3622841-2.272073.3550864-3.872361 1.9961613-5.278311 3.6804223-1.101248 1.3099808-3.793186 3.7691939-3.982726 5.4846449-.172744 1.5810941 1.223609 4.2298465 1.461133 5.8973129.3119 2.159309.532629 1.4395393 1.751439 2.7639155.770154.8205374 1.266795 1.7682342 1.28119 2.9174664z" fill="#3f3d56"/><g fill="#f2f2f2"><path d="m72.0393474 80.0359885h-23.8963532c-.0662529 0-.1199616-.0537087-.1199616-.1199616 0-.066253.0537087-.1199616.1199616-.1199616h23.8963532c.066253 0 .1199616.0537086.1199616.1199616 0 .0662529-.0537086.1199616-.1199616.1199616z"/><path d="m72.0393474 82.1952975h-23.8963532c-.0662529 0-.1199616-.0537086-.1199616-.1199616s.0537087-.1199616.1199616-.1199616h23.8963532c.066253 0 .1199616.0537086.1199616.1199616s-.0537086.1199616-.1199616.1199616z"/><path d="m72.0393474 84.3546065h-23.8963532c-.0662529 0-.1199616-.0537086-.1199616-.1199616s.0537087-.1199616.1199616-.1199616h23.8963532c.066253 0 .1199616.0537086.1199616.1199616s-.0537086.1199616-.1199616.1199616z"/></g></g><path d="m179.990838 51.7243112c-2.443852.9881696-4.372345 4.4021474-7.305364 6.3425337-.181873.1203209-.363745.1804813-.484994.1804813-.242497 0-.545618-.2406417-.545618-1.3235294 0-3.7299465 1.212485-5.5347594 2.243097-8.1818182 3.576831-9.2045454 9.69988-17.0855615 15.156063-25.6885027.424369-.6617647.666866-1.3836898.666866-2.1657754 0-.6617647-.242497-1.2032085-.545618-1.8649732-.242497-.5414439-1.333733-1.0227273-2.546218-1.0227273-.666867 0-1.27311.0601604-2.061225.0601604-2.84934 0-3.455582 4.1510695-4.122449 5.2339572-4.546819 7.6403744-9.760504 17.0855615-12.427971 23.763369-.584943 1.4969966-1.216789 2.9939931-1.697052 4.5303829-2.635997.757473-4.610768 4.4354383-7.699707 6.4789754-.181872.1203209-.363745.1804813-.484994.1804813-.242497 0-.545618-.2406417-.545618-1.3235294 0-3.7299465 1.212485-5.5347594 2.243097-8.1818182 3.576831-9.2045454 9.69988-17.0855615 15.156063-25.6885027.424369-.6617647.666866-1.3836898.666866-2.1657754 0-.6617647-.242497-1.2032085-.545618-1.8649732-.242497-.5414439-1.333733-1.0227273-2.546218-1.0227273-.666867 0-1.27311.0601604-2.061225.0601604-2.84934 0-3.455582 4.1510695-4.122449 5.2339572-4.546819 7.6403744-9.760504 17.0855615-12.427971 23.763369-.212063.5427147-.43029 1.0854295-.645224 1.6300214-.066372.0351802-.13415.0733304-.203515.114631-3.091837 1.8048129-5.69868 4.9933155-9.457383 7.1590909-.727491.421123-2.970589 1.9852942-4.789316 1.9852942-.42437 0-.788115-.1203209-1.151861-.3008022-.545618-.2406417-1.091236-1.3836898-1.091236-1.7446524 0-.3008021.060624-.3609625.666866-.7219251 5.334934-3.1885027 9.69988-7.7606952 13.458584-12.3328877 1.394358-1.684492 3.213085-4.9933155 3.213085-7.3997326 0-1.5641712-.545618-3.368984-2.42497-4.0307487-1.333733-.4812834-2.84934-.7219251-4.061825-.7219251-3.213085 0-5.577431 1.4438502-6.911164 2.8275401-1.357815 1.4384684-2.671201 2.9155143-3.891413 4.4444817-1.274928-1.0922755-3.0732-1.5567812-4.777855-1.5567812-2.0006 0-5.759304 2.4665775-7.69928 3.9104278-.303121.2406417-.484994.3609626-.606242.3609626-.060624 0-.121249-.0601604-.121249-.1804813 0-.0601604.121249-.6016043.121249-1.5641711 0-.842246-.181873-1.9251337-.969988-3.2486631-.181873-.3008022-1.273109-.9625669-2.606843-.9625669-1.636855 0-3.152461.7820856-3.152461 1.6243316 0 .6016043.545618.842246.545618 1.3836898 0 .3008022-.242497 1.684492-.606242 3.0080214-1.030612 3.8502674-2.303722 7.6403743-3.637455 11.4304813-.727491 2.105615-3.152461 3.9705882-3.152461 6.2566845 0 .7219251.484994 1.684492 1.151861 2.4064171 1.091236 1.2032086 1.758103 1.6243315 2.728091 1.6243315.42437 0 .909364-.1203208 1.333733-.4812834.909364-.7820855 1.394358-1.5641711 1.636855-2.6470588 1.576231-7.0989305 6.123049-11.9117647 11.154862-15.1002674 1.697479-1.0828877 4.001201-2.2259358 4.304322-2.2259358.310821 0 .796938.1423256 1.286771.2810356-1.40658 2.2766882-2.546267 4.6776774-3.287371 7.2390179-.242497.842246-.363746 1.6243315-.363746 2.4665775 0 1.3836899.303121 2.8275401.788115 4.21123.666867 1.9251336 1.758104 3.6096256 3.27371 4.3917112 2.788715 1.4438503 4.789316 2.2259358 6.608043 2.2259358 1.030612 0 1.818728-.1804813 2.667467-.6617647 3.984642-2.2372203 6.427641-3.9344939 8.191691-5.4420413.048369 1.5285225.351997 2.3753624 1.447565 3.5169076 1.091236 1.1430481 2.788715 2.1657754 5.031813 2.6470588.363745.0601605.727491.1203209 1.091236.1203209 2.566407 0 5.036242-2.0700009 6.940725-4.1220434.220503.4477924.540935.8752375 1.001052 1.3546637 1.091236 1.1430481 2.788715 2.1657754 5.031812 2.6470588.363746.0601605.727491.1203209 1.091237.1203209 3.00629 0 5.880066-2.8404116 7.867826-5.1651098.662488 1.359782 2.513798 2.704182 4.742018 3.78142.606242.3008021 1.333733.4812834 2.0006.4812834 2.606843 0 4.486195-2.105615 5.941177-3.6697861 3.758703-4.0909091 5.819928-9.144385 7.396158-15.5213904.121249-.4812834.303121-.6617647.545618-.6617647.606243 0 1.394358 0 2.243098-.1203208 1.636854-.2406418 2.909964-.7820856 4.42557-1.0227273.909364-.1804813.788115-.4812834 1.636855-.7820856.606242-.2406417 1.091236-.4812834 1.091236-1.0828877 0-1.0227273-1.879352-2.105615-4.728691-2.105615-2.243098 0-3.576831.1804813-4.486195.1804813-1.394358 0-1.758103-.421123-2.667467-2.7673797 0 0 .909364 2.3462567 0 0-.181873-.4812834-.363745-.7219251-.909364-1.2032085-1.273109-1.0828877-2.849339-1.4438503-4.122449-1.4438503-3.031212 0-5.638055 3.0681818-7.456782 5.6550802-.42437.6016043-1.030613 1.0828877-1.454982 1.7446524-2.497309 3.7173034-4.888345 7.9091764-5.183232 12.4275198zm-77.603005-20.3930323c1.520912 0 2.372623-.1201849 2.555133-.1201849.182509 0 .304182.0600924.304182.2403698 0 .1201849-.060836.3004622-.486692 1.201849-3.711026 7.8721109-6.2661594 15.8644068-8.51711 24.6979969-.0608365.2403698-.243346 1.1417566-.243346 2.0431433 0 .8412943.243346 1.7426811 1.095057 2.2234207 1.6425856.9614792 2.980989 1.3821263 3.893536 1.3821263 1.338403 0 2.007605-.8412943 2.007605-2.2234206 0-1.201849.060836-2.4637905.243346-3.4252697 1.703422-8.8335901 4.258555-15.7442219 8.212927-22.9553159 1.885932-3.4252696 2.129278-3.605547 2.129278-3.9060092 0-.1201849-.060836-.3004623-.182509-.4807396 2.43346-.5408321 5.353612-.9013868 8.030418-.9013868.304182 0 1.520912.4206472 1.703422.6009245.425855.4206472.851711.8412943 1.581749.8412943.608365 0 1.642585-.4206471 2.007604-.6610169.851711-.6009245 1.277567-1.2619415 1.277567-2.3436056 0-1.0215716-3.8327-3.5454545-6.509506-3.5454545-3.285171 0-6.266159.4206471-9.064638.9614792-1.216731.2403698-5.596959.9013867-8.760457.9013867-3.041825 0-2.859315-.4206471-4.1368819-.4206471-.730038 0-1.095057.3605547-1.3992395.6610169-.3041825.3004623-.486692 1.5023113-.486692 2.5839754 0 .540832 0 .9614792.3041825 1.3220339.9125475 1.0816641 2.6768059 1.3220339 4.4410649 1.3220339zm44.612167 5.0366456c0 .5518868-.177515.9198113-.887574 2.0849057-.710059 1.1650943-.414201 1.1650943-1.301775 2.3915094-1.715976 2.3915095-3.846154 4.7830189-6.627219 7.4198113-.769231.7358491-.887574.7358491-1.005917.7358491-.059172 0-.177515-.0613208-.177515-.1839623 0-.1839622.059172-.4292452.650888-1.7169811 1.834319-3.9858491 4.08284-6.6226415 6.568047-9.1981132 1.360947-1.4103774 2.189349-1.9009434 2.485207-1.9009434.177515 0 .295858.0613208.295858.3679245zm47.129032.6320755c.058065 0 .116129.0625.174194.1875.058064.1875.174193.375.464516.625.232258.1875.232258 1.0625.232258 1.75 0 6.0625-3.193548 11.0625-6.329032 16.125-.696774 1.125-1.103226 1.3125-1.451613 1.3125-.290323 0-.754839-.8125-.929032-1.3125-.232258-.6875-.290323-1.5-.290323-1.8125 0-4.875 4.296774-12.125 7.141935-16.125.464517-.6875.812904-.75.987097-.75z" fill="#0079bf"/><path d="m56.625 25h27.75c2.554317 0 4.625 2.070683 4.625 4.625v27.75c0 2.554317-2.070683 4.625-4.625 4.625h-27.75c-2.554317 0-4.625-2.070683-4.625-4.625v-27.75c0-2.554317 2.070683-4.625 4.625-4.625z" fill="url(#a)"/><g fill="#fff"><path d="m76.1639344 29h6.6721312c1.195108 0 2.1639344 1.0438161 2.1639344 2.3314286v12.3371428c0 1.2876125-.9688264 2.3314286-2.1639344 2.3314286h-6.6721312c-1.195108 0-2.1639344-1.0438161-2.1639344-2.3314286v-12.3371428c0-1.2876125.9688264-2.3314286 2.1639344-2.3314286z"/><path d="m59.1639344 30h6.6721312c1.195108 0 2.1639344.9768333 2.1639344 2.1818182v20.6363636c0 1.2049849-.9688264 2.1818182-2.1639344 2.1818182h-6.6721312c-1.195108 0-2.1639344-.9768333-2.1639344-2.1818182v-20.6363636c0-1.2049849.9688264-2.1818182 2.1639344-2.1818182z"/></g></g></svg>